<svg width="285" height="224" viewBox="0 0 285 224" fill="none" xmlns="http://www.w3.org/2000/svg">
<path d="M144.051 94.8092C143.814 94.506 143.511 94.2608 143.164 94.0922C142.818 93.9236 142.438 93.8359 142.053 93.8359C141.668 93.8359 141.288 93.9236 140.942 94.0922C140.596 94.2608 140.293 94.506 140.056 94.8092L104.542 139.74C104.249 140.114 104.068 140.563 104.018 141.035C103.968 141.507 104.052 141.984 104.261 142.411C104.469 142.838 104.793 143.197 105.196 143.448C105.599 143.699 106.065 143.832 106.54 143.831H129.972V220.693C129.972 222.088 131.114 223.229 132.509 223.229H151.534C152.929 223.229 154.071 222.088 154.071 220.693V143.862H177.567C179.691 143.862 180.865 141.421 179.565 139.772L144.051 94.8092Z" fill="white" fill-opacity="0.43"/>
<path d="M236.99 65.5418C222.468 27.2377 185.464 0 142.118 0C98.7724 0 61.7684 27.206 47.2459 65.51C20.0716 72.6445 0 97.4089 0 126.835C0 161.873 28.3792 190.252 63.3856 190.252H76.1007C77.4959 190.252 78.6374 189.11 78.6374 187.715V168.69C78.6374 167.295 77.4959 166.153 76.1007 166.153H63.3856C52.6998 166.153 42.6481 161.904 35.1649 154.199C27.7133 146.526 23.7498 136.189 24.0986 125.471C24.3839 117.1 27.2377 109.236 32.4062 102.609C37.7016 95.8552 45.1214 90.9404 53.3656 88.7525L65.3832 85.6133L69.7907 74.0079C72.5177 66.7784 76.3227 60.0244 81.1107 53.9047C85.8376 47.8391 91.4368 42.507 97.726 38.0821C110.758 28.9183 126.105 24.0669 142.118 24.0669C158.131 24.0669 173.478 28.9183 186.51 38.0821C192.82 42.5213 198.401 47.8483 203.126 53.9047C207.914 60.0244 211.719 66.8101 214.446 74.0079L218.821 85.5816L230.807 88.7525C247.993 93.3819 260.011 109.014 260.011 126.835C260.011 137.33 255.92 147.223 248.501 154.643C244.862 158.303 240.533 161.205 235.765 163.181C230.997 165.156 225.885 166.167 220.724 166.153H208.009C206.613 166.153 205.472 167.295 205.472 168.69V187.715C205.472 189.11 206.613 190.252 208.009 190.252H220.724C255.73 190.252 284.109 161.873 284.109 126.835C284.109 97.4406 264.101 72.7079 236.99 65.5418Z" fill="white" fill-opacity="0.43"/>
</svg>
